<?xml version="1.0" encoding="UTF-8"?>
<svg version="1.1" xmlns="http://www.w3.org/2000/svg" width="100" height="100">
<path d="M0 0 C5.60428056 4.20321042 10.9295058 8.72063943 12 16 C13.04309822 29.0387277 6.05191099 40.72624863 -2.0625 50.375 C-10.18785433 59.76092072 -18.83710367 68.51919683 -28.5625 76.25 C-29.14620361 76.71615723 -29.72990723 77.18231445 -30.33129883 77.66259766 C-36.12965399 82.13641248 -36.12965399 82.13641248 -39 82 C-41.20355843 80.49423508 -43.03974504 79.0306673 -45 77.25 C-45.56960449 76.74919922 -46.13920898 76.24839844 -46.72607422 75.73242188 C-48.49637656 74.16817352 -50.24913601 72.58594899 -52 71 C-53.04410013 70.06751717 -54.08836377 69.13521737 -55.1328125 68.203125 C-58.12910625 65.51078197 -61.06629601 62.76043825 -64 60 C-64.95003906 59.12730469 -65.90007812 58.25460938 -66.87890625 57.35546875 C-75.57142031 49.09818488 -84.7713809 38.46683348 -86.37109375 26.140625 C-86.56283862 17.79408351 -84.96754569 11.44734191 -79.3203125 5.1171875 C-74.88421432 1.03597717 -70.76171857 -0.68134016 -64.75 -1.375 C-57.07254915 -0.60725491 -50.4113891 2.46562478 -45 8 C-42.86547708 10.92144381 -40.89367349 13.91774421 -39 17 C-38.5153125 16.27554687 -38.030625 15.55109375 -37.53125 14.8046875 C-29.11984077 2.67284726 -15.25056972 -9.44872255 0 0 Z " fill="#EB8CAB" transform="translate(87,14)"/>
</svg>
