<?xml version="1.0" encoding="UTF-8"?>
<!DOCTYPE svg PUBLIC "-//W3C//DTD SVG 1.1//EN" "http://www.w3.org/Graphics/SVG/1.1/DTD/svg11.dtd">
<svg xmlns="http://www.w3.org/2000/svg" version="1.1" width="1920px" height="1080px" style="shape-rendering:geometricPrecision; text-rendering:geometricPrecision; image-rendering:optimizeQuality; fill-rule:evenodd; clip-rule:evenodd" xmlns:xlink="http://www.w3.org/1999/xlink">
<g><path style="opacity:0.068" fill="#000000" d="M 950.5,214.5 C 1109.18,214.431 1237.68,276.098 1336,399.5C 1412.36,500.569 1435.36,612.903 1405,736.5C 1384.74,802.742 1344.58,852.908 1284.5,887C 1245,908.058 1203.33,923.391 1159.5,933C 1082.68,949.739 1005.01,955.739 926.5,951C 847.752,948.209 771.085,934.209 696.5,909C 571.326,863.253 508.992,773.42 509.5,639.5C 509.41,554.406 534.91,478.073 586,410.5C 632.159,349.886 688.326,301.052 754.5,264C 816.129,232.426 881.463,215.926 950.5,214.5 Z"/></g>
<g><path style="opacity:0.997" fill="#f4f4f4" d="M 1016.5,292.5 C 974.799,289.546 933.132,289.879 891.5,293.5C 923.716,286.439 956.383,284.606 989.5,288C 998.738,288.912 1007.74,290.412 1016.5,292.5 Z"/></g>
<g><path style="opacity:0.999" fill="#fbddef" d="M 1016.5,292.5 C 1031.3,294.782 1045.63,298.448 1059.5,303.5C 992.556,291.904 925.556,291.571 858.5,302.5C 869.106,298.43 880.106,295.43 891.5,293.5C 933.132,289.879 974.799,289.546 1016.5,292.5 Z"/></g>
<g><path style="opacity:1" fill="#fed3ed" d="M 1059.5,303.5 C 1064.39,304.796 1069.06,306.462 1073.5,308.5C 1072.42,308.539 1071.42,308.873 1070.5,309.5C 993.189,292.226 915.855,292.226 838.5,309.5C 844.802,306.398 851.469,304.064 858.5,302.5C 925.556,291.571 992.556,291.904 1059.5,303.5 Z"/></g>
<g><path style="opacity:1" fill="#fdc6e7" d="M 1073.5,308.5 C 1084.7,312.105 1095.37,316.772 1105.5,322.5C 1084.88,318.261 1064.54,312.928 1044.5,306.5C 1031.6,303.99 1018.6,302.324 1005.5,301.5C 974.483,297.715 943.483,297.715 912.5,301.5C 905.126,301.384 897.792,301.884 890.5,303C 876.028,306.302 861.362,308.969 846.5,311C 839.601,312.6 832.768,314.433 826,316.5C 825.235,316.43 824.735,316.097 824.5,315.5C 828.844,312.935 833.51,310.935 838.5,309.5C 915.855,292.226 993.189,292.226 1070.5,309.5C 1071.42,308.873 1072.42,308.539 1073.5,308.5 Z"/></g>
<g><path style="opacity:1" fill="#ee63a0" d="M 1005.5,301.5 C 1048.88,309.195 1089.55,324.195 1127.5,346.5C 1120.83,343.372 1114.5,343.872 1108.5,348C 1099.89,361.959 1096.72,377.126 1099,393.5C 1101.68,420.034 1113.18,441.867 1133.5,459C 1167.37,486.847 1206.2,502.68 1250,506.5C 1260.05,507.385 1269.38,505.385 1278,500.5C 1279.45,497.628 1279.62,494.628 1278.5,491.5C 1279.49,492.795 1280.49,494.128 1281.5,495.5C 1298.77,523.709 1310.77,554.042 1317.5,586.5C 1318.68,592.931 1319.68,599.264 1320.5,605.5C 1321.37,615.473 1321.7,625.473 1321.5,635.5C 1320.95,642.515 1320.29,649.515 1319.5,656.5C 1316.87,674.06 1312.2,691.06 1305.5,707.5C 1304.23,697.332 1299.56,688.832 1291.5,682C 1263.71,661.648 1233.38,656.981 1200.5,668C 1183.61,673.9 1169.11,683.4 1157,696.5C 1136.51,723.764 1136.51,751.097 1157,778.5C 1170.86,795.682 1188.7,804.682 1210.5,805.5C 1192.25,814.357 1173.58,822.024 1154.5,828.5C 1129,835.791 1103.33,841.791 1077.5,846.5C 990.803,857.72 904.469,855.387 818.5,839.5C 802.601,835.525 786.601,831.525 770.5,827.5C 738.642,817.738 708.642,803.905 680.5,786C 655.286,768.027 635.286,745.527 620.5,718.5C 622.932,719.75 625.266,721.25 627.5,723C 632.403,723.937 637.07,723.27 641.5,721C 663.627,706.21 680.793,687.044 693,663.5C 701.25,636.193 691.083,621.027 662.5,618C 645.353,616.768 628.353,617.768 611.5,621C 604.471,623.524 600.137,628.357 598.5,635.5C 598.313,626.139 598.646,616.805 599.5,607.5C 600.503,602.141 601.503,596.808 602.5,591.5C 604.812,577.237 608.812,563.57 614.5,550.5C 614.268,556.306 615.768,561.639 619,566.5C 627.89,576.697 639.056,582.863 652.5,585C 671.178,588.11 689.178,585.777 706.5,578C 754.838,556.34 783.672,519.506 793,467.5C 795.616,438.621 788.282,412.621 771,389.5C 767.065,384.89 762.565,381.057 757.5,378C 755.5,377.333 753.5,377.333 751.5,378C 748.447,379.527 745.447,381.027 742.5,382.5C 760.11,367.694 778.777,354.361 798.5,342.5C 834.313,322.454 872.313,308.787 912.5,301.5C 943.483,297.715 974.483,297.715 1005.5,301.5 Z"/></g>
<g><path style="opacity:1" fill="#fcaede" d="M 912.5,301.5 C 872.313,308.787 834.313,322.454 798.5,342.5C 774.751,351.708 752.084,363.041 730.5,376.5C 729.893,376.376 729.56,376.043 729.5,375.5C 757.986,350.723 789.653,330.723 824.5,315.5C 824.735,316.097 825.235,316.43 826,316.5C 832.768,314.433 839.601,312.6 846.5,311C 861.362,308.969 876.028,306.302 890.5,303C 897.792,301.884 905.126,301.384 912.5,301.5 Z"/></g>
<g><path style="opacity:0.999" fill="#fca8dc" d="M 798.5,342.5 C 778.777,354.361 760.11,367.694 742.5,382.5C 689.843,424.159 648.843,475.159 619.5,535.5C 616.245,537.926 613.412,540.926 611,544.5C 606.067,552.046 600.9,559.379 595.5,566.5C 594.818,565.757 594.151,565.091 593.5,564.5C 604.383,529.4 620.55,497.066 642,467.5C 667.205,433.127 696.371,402.46 729.5,375.5C 729.56,376.043 729.893,376.376 730.5,376.5C 752.084,363.041 774.751,351.708 798.5,342.5 Z"/></g>
<g><path style="opacity:1" fill="#dd4789" d="M 1127.5,346.5 C 1142.65,354.238 1156.98,363.238 1170.5,373.5C 1170.86,375.371 1171.86,376.871 1173.5,378C 1187.13,389.294 1200.46,400.961 1213.5,413C 1224.06,423.395 1234.4,433.895 1244.5,444.5C 1258.03,458.567 1269.37,474.233 1278.5,491.5C 1279.62,494.628 1279.45,497.628 1278,500.5C 1269.38,505.385 1260.05,507.385 1250,506.5C 1206.2,502.68 1167.37,486.847 1133.5,459C 1113.18,441.867 1101.68,420.034 1099,393.5C 1096.72,377.126 1099.89,361.959 1108.5,348C 1114.5,343.872 1120.83,343.372 1127.5,346.5 Z"/></g>
<g><path style="opacity:0.999" fill="#fbaadb" d="M 1005.5,301.5 C 1018.6,302.324 1031.6,303.99 1044.5,306.5C 1064.54,312.928 1084.88,318.261 1105.5,322.5C 1195.39,365.726 1262.39,432.059 1306.5,521.5C 1304.98,521.489 1303.82,520.823 1303,519.5C 1298,513.167 1293,506.833 1288,500.5C 1286.22,498.21 1284.06,496.543 1281.5,495.5C 1280.49,494.128 1279.49,492.795 1278.5,491.5C 1269.37,474.233 1258.03,458.567 1244.5,444.5C 1223.07,417.405 1198.41,393.738 1170.5,373.5C 1156.98,363.238 1142.65,354.238 1127.5,346.5C 1089.55,324.195 1048.88,309.195 1005.5,301.5 Z"/></g>
<g><path style="opacity:1" fill="#e675a6" d="M 614.5,550.5 C 615.314,545.208 616.98,540.208 619.5,535.5C 648.843,475.159 689.843,424.159 742.5,382.5C 745.447,381.027 748.447,379.527 751.5,378C 753.5,377.333 755.5,377.333 757.5,378C 762.565,381.057 767.065,384.89 771,389.5C 788.282,412.621 795.616,438.621 793,467.5C 783.672,519.506 754.838,556.34 706.5,578C 689.178,585.777 671.178,588.11 652.5,585C 639.056,582.863 627.89,576.697 619,566.5C 615.768,561.639 614.268,556.306 614.5,550.5 Z"/></g>
<g><path style="opacity:1" fill="#ee66a3" d="M 1170.5,373.5 C 1198.41,393.738 1223.07,417.405 1244.5,444.5C 1234.4,433.895 1224.06,423.395 1213.5,413C 1200.46,400.961 1187.13,389.294 1173.5,378C 1171.86,376.871 1170.86,375.371 1170.5,373.5 Z"/></g>
<g><path style="opacity:1" fill="#fca1d8" d="M 1281.5,495.5 C 1284.06,496.543 1286.22,498.21 1288,500.5C 1293,506.833 1298,513.167 1303,519.5C 1303.82,520.823 1304.98,521.489 1306.5,521.5C 1315.02,539.049 1321.35,557.383 1325.5,576.5C 1323.21,580.122 1320.55,583.455 1317.5,586.5C 1310.77,554.042 1298.77,523.709 1281.5,495.5 Z"/></g>
<g><path style="opacity:1" fill="#fe9cd7" d="M 619.5,535.5 C 616.98,540.208 615.314,545.208 614.5,550.5C 608.812,563.57 604.812,577.237 602.5,591.5C 601.078,591.291 599.745,590.791 598.5,590C 595.814,586.397 592.814,583.231 589.5,580.5C 590.525,575.067 591.858,569.733 593.5,564.5C 594.151,565.091 594.818,565.757 595.5,566.5C 600.9,559.379 606.067,552.046 611,544.5C 613.412,540.926 616.245,537.926 619.5,535.5 Z"/></g>
<g><path style="opacity:0.999" fill="#fa7dc9" d="M 1325.5,576.5 C 1327.48,583.685 1328.81,591.018 1329.5,598.5C 1326.15,600.537 1323.15,602.87 1320.5,605.5C 1319.68,599.264 1318.68,592.931 1317.5,586.5C 1320.55,583.455 1323.21,580.122 1325.5,576.5 Z"/></g>
<g><path style="opacity:0.999" fill="#fc7ecb" d="M 589.5,580.5 C 592.814,583.231 595.814,586.397 598.5,590C 599.745,590.791 601.078,591.291 602.5,591.5C 601.503,596.808 600.503,602.141 599.5,607.5C 594.523,605.678 589.857,603.345 585.5,600.5C 586.198,593.676 587.531,587.009 589.5,580.5 Z"/></g>
<g><path style="opacity:1" fill="#dd4789" d="M 620.5,718.5 C 618.485,715.131 616.485,711.798 614.5,708.5C 607.949,691.634 602.949,674.301 599.5,656.5C 598.835,650.523 598.502,644.523 598.5,638.5C 598.5,637.5 598.5,636.5 598.5,635.5C 600.137,628.357 604.471,623.524 611.5,621C 628.353,617.768 645.353,616.768 662.5,618C 691.083,621.027 701.25,636.193 693,663.5C 680.793,687.044 663.627,706.21 641.5,721C 637.07,723.27 632.403,723.937 627.5,723C 625.266,721.25 622.932,719.75 620.5,718.5 Z"/></g>
<g><path style="opacity:0.995" fill="#fd68c3" d="M 585.5,600.5 C 589.857,603.345 594.523,605.678 599.5,607.5C 598.646,616.805 598.313,626.139 598.5,635.5C 598.5,636.5 598.5,637.5 598.5,638.5C 593.052,640.434 588.552,643.767 585,648.5C 584.768,647.263 584.268,646.263 583.5,645.5C 583.051,630.427 583.717,615.427 585.5,600.5 Z"/></g>
<g><path style="opacity:0.998" fill="#fc67c2" d="M 1329.5,598.5 C 1331.27,612.749 1331.94,627.082 1331.5,641.5C 1328.41,639.075 1325.08,637.075 1321.5,635.5C 1321.7,625.473 1321.37,615.473 1320.5,605.5C 1323.15,602.87 1326.15,600.537 1329.5,598.5 Z"/></g>
<g><path style="opacity:0.999" fill="#f97bc8" d="M 1321.5,635.5 C 1325.08,637.075 1328.41,639.075 1331.5,641.5C 1331.15,649.623 1330.15,657.623 1328.5,665.5C 1326.02,661.899 1323.52,658.233 1321,654.5C 1320.72,655.416 1320.22,656.082 1319.5,656.5C 1320.29,649.515 1320.95,642.515 1321.5,635.5 Z"/></g>
<g><path style="opacity:1" fill="#fc84cd" d="M 598.5,638.5 C 598.502,644.523 598.835,650.523 599.5,656.5C 595.009,659.753 591.676,664.086 589.5,669.5C 589.043,670.298 588.376,670.631 587.5,670.5C 585.435,662.32 584.101,653.987 583.5,645.5C 584.268,646.263 584.768,647.263 585,648.5C 588.552,643.767 593.052,640.434 598.5,638.5 Z"/></g>
<g><path style="opacity:1" fill="#e675a6" d="M 1305.5,707.5 C 1284.66,750.669 1253,783.336 1210.5,805.5C 1188.7,804.682 1170.86,795.682 1157,778.5C 1136.51,751.097 1136.51,723.764 1157,696.5C 1169.11,683.4 1183.61,673.9 1200.5,668C 1233.38,656.981 1263.71,661.648 1291.5,682C 1299.56,688.832 1304.23,697.332 1305.5,707.5 Z"/></g>
<g><path style="opacity:1" fill="#fd9fd8" d="M 599.5,656.5 C 602.949,674.301 607.949,691.634 614.5,708.5C 607.206,703.04 600.706,696.707 595,689.5C 593.961,690.244 593.461,691.244 593.5,692.5C 590.587,685.522 588.587,678.189 587.5,670.5C 588.376,670.631 589.043,670.298 589.5,669.5C 591.676,664.086 595.009,659.753 599.5,656.5 Z"/></g>
<g><path style="opacity:1" fill="#fcaadc" d="M 614.5,708.5 C 616.485,711.798 618.485,715.131 620.5,718.5C 635.286,745.527 655.286,768.027 680.5,786C 708.642,803.905 738.642,817.738 770.5,827.5C 745.685,822.17 721.351,815.336 697.5,807C 695.132,806.21 692.966,805.044 691,803.5C 690.235,803.57 689.735,803.903 689.5,804.5C 643.032,779.56 611.032,742.227 593.5,692.5C 593.461,691.244 593.961,690.244 595,689.5C 600.706,696.707 607.206,703.04 614.5,708.5 Z"/></g>
<g><path style="opacity:0.999" fill="#fba8da" d="M 1328.5,665.5 C 1315.34,729.216 1280.34,776.549 1223.5,807.5C 1223.44,806.957 1223.11,806.624 1222.5,806.5C 1200.5,815.997 1177.83,823.331 1154.5,828.5C 1173.58,822.024 1192.25,814.357 1210.5,805.5C 1253,783.336 1284.66,750.669 1305.5,707.5C 1312.2,691.06 1316.87,674.06 1319.5,656.5C 1320.22,656.082 1320.72,655.416 1321,654.5C 1323.52,658.233 1326.02,661.899 1328.5,665.5 Z"/></g>
<g><path style="opacity:1" fill="#fbbfe3" d="M 1223.5,807.5 C 1206.53,817.647 1188.53,825.647 1169.5,831.5C 1168.73,830.853 1167.73,830.52 1166.5,830.5C 1137.13,837.641 1107.46,842.975 1077.5,846.5C 1103.33,841.791 1129,835.791 1154.5,828.5C 1177.83,823.331 1200.5,815.997 1222.5,806.5C 1223.11,806.624 1223.44,806.957 1223.5,807.5 Z"/></g>
<g><path style="opacity:1" fill="#fcd1eb" d="M 818.5,839.5 C 904.469,855.387 990.803,857.72 1077.5,846.5C 1107.46,842.975 1137.13,837.641 1166.5,830.5C 1167.73,830.52 1168.73,830.853 1169.5,831.5C 1161.51,834.941 1153.17,837.607 1144.5,839.5C 1144.08,838.876 1143.42,838.543 1142.5,838.5C 1071.15,852.43 999.151,857.596 926.5,854C 871.969,851.767 817.969,845.267 764.5,834.5C 750.334,831.001 736.668,826.334 723.5,820.5C 723.735,819.903 724.235,819.57 725,819.5C 755.687,828.464 786.854,835.131 818.5,839.5 Z"/></g>
<g><path style="opacity:1" fill="#fdbfe5" d="M 770.5,827.5 C 786.601,831.525 802.601,835.525 818.5,839.5C 786.854,835.131 755.687,828.464 725,819.5C 724.235,819.57 723.735,819.903 723.5,820.5C 711.614,816.223 700.281,810.889 689.5,804.5C 689.735,803.903 690.235,803.57 691,803.5C 692.966,805.044 695.132,806.21 697.5,807C 721.351,815.336 745.685,822.17 770.5,827.5 Z"/></g>
<g><path style="opacity:1" fill="#fadaee" d="M 764.5,834.5 C 817.969,845.267 871.969,851.767 926.5,854C 999.151,857.596 1071.15,852.43 1142.5,838.5C 1143.42,838.543 1144.08,838.876 1144.5,839.5C 1135.34,842.456 1126.01,844.789 1116.5,846.5C 1115.55,845.848 1114.38,845.514 1113,845.5C 1008.87,860.404 904.865,859.404 801,842.5C 799.93,842.528 799.097,842.861 798.5,843.5C 786.815,841.414 775.482,838.414 764.5,834.5 Z"/></g>
<g><path style="opacity:1" fill="#fae2f1" d="M 1116.5,846.5 C 1103.46,850.011 1090.12,852.678 1076.5,854.5C 1075.21,853.842 1073.71,853.508 1072,853.5C 1002.17,860.11 932.341,860.11 862.5,853.5C 860.631,853.507 858.964,853.84 857.5,854.5C 837.496,851.964 817.83,848.298 798.5,843.5C 799.097,842.861 799.93,842.528 801,842.5C 904.865,859.404 1008.87,860.404 1113,845.5C 1114.38,845.514 1115.55,845.848 1116.5,846.5 Z"/></g>
<g><path style="opacity:0.997" fill="#f2f1f2" d="M 857.5,854.5 C 858.964,853.84 860.631,853.507 862.5,853.5C 932.341,860.11 1002.17,860.11 1072,853.5C 1073.71,853.508 1075.21,853.842 1076.5,854.5C 1042.23,859.965 1007.73,862.298 973,861.5C 934.317,862.017 895.817,859.683 857.5,854.5 Z"/></g>
</svg>
