<svg xmlns="http://www.w3.org/2000/svg" xmlns:xlink="http://www.w3.org/1999/xlink" width="1920" zoomAndPan="magnify" viewBox="0 0 1440 809.999993" height="1080" preserveAspectRatio="xMidYMid meet" version="1.0"><defs><clipPath id="ada3d6983f"><path d="M 113 10 L 1292 10 L 1292 778 L 113 778 Z M 113 10 " clip-rule="nonzero"/></clipPath><clipPath id="111e42bbae"><path d="M 9.675781 293.265625 L 1219.914062 -103.125 L 1430.246094 539.058594 L 220.007812 935.445312 Z M 9.675781 293.265625 " clip-rule="nonzero"/></clipPath><clipPath id="c12c23893c"><path d="M 9.675781 293.265625 L 1219.914062 -103.125 L 1430.246094 539.058594 L 220.007812 935.445312 Z M 9.675781 293.265625 " clip-rule="nonzero"/></clipPath><clipPath id="f14b89ba93"><path d="M 724 62 L 728 62 L 728 65 L 724 65 Z M 724 62 " clip-rule="nonzero"/></clipPath><clipPath id="2039446fcb"><path d="M 9.675781 293.265625 L 1219.914062 -103.125 L 1430.246094 539.058594 L 220.007812 935.445312 Z M 9.675781 293.265625 " clip-rule="nonzero"/></clipPath><clipPath id="b771ec2410"><path d="M 9.675781 293.265625 L 1219.914062 -103.125 L 1430.246094 539.058594 L 220.007812 935.445312 Z M 9.675781 293.265625 " clip-rule="nonzero"/></clipPath></defs><g clip-path="url(#ada3d6983f)"><g clip-path="url(#111e42bbae)"><g clip-path="url(#c12c23893c)"><path fill="#ff7bac" d="M 1275.351562 69.523438 C 1274.023438 67.316406 1272.992188 64.9375 1271.703125 62.703125 C 1269.546875 58.96875 1267.308594 55.292969 1265.082031 51.601562 C 1264.394531 50.457031 1263.671875 49.320312 1262.933594 48.203125 C 1261.816406 46.511719 1260.972656 44.472656 1259.472656 43.222656 C 1256.921875 41.09375 1254.792969 38.675781 1252.875 36.023438 C 1252.449219 35.441406 1252.175781 34.503906 1251.621094 34.300781 C 1249.464844 33.519531 1247.386719 32.792969 1246.945312 30.117188 C 1246.917969 29.949219 1246.390625 29.90625 1246.15625 29.722656 C 1244.203125 28.203125 1241.332031 27.816406 1240.433594 24.941406 C 1240.269531 24.417969 1239 23.683594 1238.730469 23.847656 C 1236.558594 25.15625 1235.929688 23.074219 1234.652344 22.265625 C 1232.144531 20.6875 1230.652344 17.207031 1226.855469 17.925781 C 1226.6875 17.957031 1226.347656 17.824219 1226.308594 17.699219 C 1225.335938 14.859375 1221.746094 16.535156 1220.449219 14.292969 C 1217.261719 13.5 1214.097656 12.542969 1210.875 11.953125 C 1207.941406 11.417969 1204.910156 11.464844 1201.980469 10.921875 C 1198.941406 10.359375 1196.046875 11.355469 1193.058594 11.339844 C 1188.765625 11.308594 1184.511719 12.105469 1180.453125 13.976562 C 1175.445312 16.285156 1174.140625 17.238281 1171.953125 22.355469 C 1171.835938 22.625 1171.613281 22.898438 1171.371094 23.078125 C 1168.789062 25.042969 1168.398438 28.082031 1167.917969 30.882812 C 1167.113281 35.527344 1166.875 40.265625 1165.859375 44.902344 C 1165.402344 46.984375 1165.214844 49.132812 1164.867188 51.488281 C 1164.246094 51.351562 1163.628906 51.210938 1163.019531 51.066406 C 1162.289062 55.828125 1161.296875 60.550781 1160.214844 65.179688 C 1161.027344 65.859375 1161.707031 66.679688 1162.050781 67.8125 C 1162.296875 68.609375 1162.191406 69.519531 1162.46875 70.300781 C 1163.679688 73.769531 1163.910156 77.117188 1161.609375 80.277344 C 1161.4375 80.519531 1161.175781 80.957031 1161.265625 81.089844 C 1162.691406 83.113281 1160.597656 83.71875 1159.664062 84.851562 C 1159.925781 85.335938 1160.164062 85.789062 1160.402344 86.230469 C 1158.703125 88.113281 1158.707031 88.109375 1158.363281 91.105469 C 1158.328125 91.398438 1158.226562 91.796875 1158.019531 91.921875 C 1156.796875 92.710938 1157.066406 94.0625 1156.628906 95.144531 C 1155.367188 98.25 1154.890625 101.84375 1151.792969 103.761719 C 1151.472656 105.03125 1152.738281 106.835938 1150.980469 107.15625 C 1149.152344 107.496094 1149.324219 108.902344 1148.757812 109.917969 C 1148.210938 110.882812 1148.054688 112.191406 1147.304688 112.902344 C 1146.164062 113.984375 1145.464844 114.988281 1145.574219 116.648438 C 1145.703125 118.648438 1142.589844 119.175781 1143.136719 121.5 C 1143.164062 121.601562 1142.875 121.894531 1142.722656 121.910156 C 1141.328125 122.003906 1141.242188 123.019531 1141.019531 124.066406 C 1140.9375 124.445312 1140.261719 124.660156 1140.03125 125.050781 C 1139.058594 126.726562 1136.488281 127.425781 1137.210938 129.988281 C 1133.699219 130.164062 1134.230469 133.96875 1132.003906 135.246094 C 1131.128906 135.746094 1130.652344 136.945312 1129.859375 138 C 1129.1875 138.007812 1128.039062 137.730469 1127.949219 139.332031 C 1127.921875 139.773438 1127.589844 140.335938 1127.226562 140.59375 C 1125.222656 142.015625 1123.164062 143.355469 1121.136719 144.742188 C 1119.960938 145.539062 1118.617188 146.046875 1117.917969 147.527344 C 1117.582031 148.238281 1116.359375 149.097656 1115.695312 148.980469 C 1113.496094 148.589844 1112.191406 149.96875 1110.671875 150.984375 C 1110.242188 151.265625 1109.640625 151.917969 1109.4375 151.8125 C 1107.457031 150.738281 1105.757812 153.203125 1104.039062 152.351562 C 1101.976562 151.332031 1100.695312 152.574219 1099.128906 153.324219 C 1098.675781 153.539062 1097.96875 153.195312 1097.371094 153.117188 C 1096.796875 153.035156 1096.230469 152.960938 1095.644531 152.886719 C 1095.152344 158.550781 1093.640625 158.6875 1089.605469 158.964844 C 1088.183594 159.0625 1086.777344 159.398438 1085.355469 159.570312 C 1083.199219 159.828125 1081.007812 160.402344 1078.882812 160.207031 C 1074.480469 159.789062 1070.109375 158.957031 1065.726562 158.285156 C 1065.558594 158.257812 1065.417969 158.0625 1065.21875 157.917969 C 1065.464844 157.625 1065.726562 157.324219 1066.230469 156.726562 C 1064.953125 156.605469 1064.058594 156.253906 1063.417969 156.515625 C 1062.546875 156.878906 1062.058594 157.195312 1061.453125 156.152344 C 1061.222656 155.769531 1060.359375 155.691406 1059.765625 155.613281 C 1057.953125 155.355469 1056.429688 154.773438 1055.242188 153.199219 C 1054.722656 152.511719 1053.476562 152.027344 1052.578125 152.039062 C 1051.109375 152.0625 1050.058594 151.601562 1048.890625 150.757812 C 1046.839844 149.273438 1044.941406 147.390625 1041.953125 147.757812 C 1040.613281 147.921875 1039.1875 147.359375 1037.800781 147.109375 C 1037.613281 147.074219 1037.449219 146.929688 1037.179688 146.785156 C 1037.171875 146.355469 1037.152344 145.859375 1037.132812 145.171875 C 1036.171875 145.007812 1034.65625 145.1875 1034.25 144.605469 C 1032.738281 142.398438 1030.328125 142.304688 1028.226562 141.867188 C 1026.46875 141.496094 1025.636719 140.046875 1024.136719 139.472656 C 1023.039062 139.050781 1022.042969 138.257812 1021.125 137.488281 C 1019.535156 136.148438 1018.207031 134.4375 1016.464844 133.375 C 1014.84375 132.390625 1012.695312 132.296875 1011.011719 131.371094 C 1006.984375 129.167969 1001.636719 129.25 999.007812 124.566406 C 998.871094 124.324219 998.503906 124.210938 998.253906 124.023438 C 996.375 122.671875 994.511719 121.292969 992.609375 119.972656 C 991.878906 119.464844 991.078125 119.054688 990.300781 118.621094 C 988.503906 117.617188 986.070312 117.058594 985.042969 115.539062 C 983.167969 112.765625 980.6875 112.019531 978.132812 111.738281 C 975.378906 108.503906 972.410156 106.320312 968.234375 106.28125 C 967.363281 102.910156 965.277344 101.421875 961.632812 101.277344 C 960.585938 101.238281 959.382812 100.84375 958.5625 100.214844 C 957.0625 99.058594 955.84375 97.554688 954.417969 96.292969 C 953.902344 95.835938 953.152344 95.636719 952.492188 95.359375 C 950.796875 94.652344 949.09375 93.976562 947.398438 93.261719 C 946.746094 92.988281 946.144531 92.511719 945.472656 92.363281 C 943.214844 91.867188 941.945312 90.292969 940.875 88.433594 C 940.574219 87.902344 940.332031 87.183594 939.855469 86.921875 C 937.460938 85.605469 935.039062 84.332031 932.546875 83.222656 C 931.519531 82.761719 930.714844 82.464844 929.925781 81.410156 C 928.59375 79.632812 925.992188 79.226562 924.445312 77.421875 C 924.113281 77.035156 923.0625 77.300781 922.347656 77.195312 C 919.949219 76.851562 917.332031 77.15625 915.566406 74.839844 C 915.351562 74.5625 914.464844 74.789062 914.25 74.785156 C 913.367188 73.453125 912.878906 71.832031 911.804688 71.230469 C 905.890625 67.890625 899.597656 65.347656 893.285156 62.871094 C 891.066406 62.007812 888.761719 61.3125 886.636719 60.261719 C 881.410156 57.648438 875.902344 55.972656 870.15625 55.1875 C 868.058594 54.898438 866.109375 54.6875 864.792969 52.75 C 864.242188 53.261719 863.863281 53.597656 863.253906 54.160156 C 862.890625 52.234375 861.675781 51.816406 860.445312 52.445312 C 859.339844 53.019531 858.515625 52.734375 857.53125 52.425781 C 854.480469 51.46875 851.464844 50.25 848.335938 49.695312 C 843.347656 48.816406 838.292969 48.03125 833.246094 47.894531 C 827.707031 47.738281 822.363281 46.929688 817.0625 45.453125 C 816.171875 45.203125 815.144531 44.976562 814.285156 45.1875 C 811.34375 45.925781 808.632812 44.5 805.757812 44.523438 C 803.082031 44.542969 800.398438 43.949219 797.71875 43.964844 C 790.394531 44.019531 783.089844 44.464844 775.898438 46.03125 C 773.007812 46.660156 770.152344 47.429688 767.273438 48.09375 C 765.964844 48.390625 764.632812 48.609375 763.296875 48.789062 C 759.960938 49.246094 756.589844 49.492188 753.6875 51.527344 C 753.230469 51.847656 752.414062 51.675781 751.761719 51.699219 C 749.757812 51.757812 747.789062 51.488281 746.65625 53.980469 C 746 55.429688 744.402344 56.277344 742.507812 56.058594 C 741.027344 55.894531 739.492188 55.339844 738.046875 56.246094 C 737.800781 56.402344 737.613281 56.640625 737.367188 56.871094 C 737.714844 57.644531 738.039062 58.359375 738.542969 59.480469 C 737.585938 59.539062 736.9375 59.6875 736.324219 59.59375 C 734.234375 59.277344 731.859375 59.183594 730.597656 60.785156 C 728.699219 63.195312 726.691406 65.46875 724.730469 67.585938 C 723.546875 67.429688 722.523438 67.175781 721.507812 67.199219 C 720.242188 67.230469 718.710938 67.773438 718.738281 69.046875 C 718.765625 70.535156 717.886719 70.976562 716.9375 71.953125 C 715.941406 70.25 714.652344 70.253906 713.234375 71.300781 C 711.871094 72.304688 712.851562 73.425781 713.296875 74.621094 C 711.71875 73.90625 709.335938 74.210938 708.453125 75.398438 C 707.140625 77.175781 705.257812 78.140625 703.496094 79.265625 C 701.632812 80.460938 701.113281 81.707031 702.226562 84.144531 C 698.777344 82.578125 696.777344 84.617188 694.71875 86.628906 C 693.695312 87.628906 692.53125 88.476562 691.46875 89.445312 C 690.644531 90.195312 689.671875 90.9375 690.46875 92.34375 C 688.019531 92.570312 686.75 93.835938 686.4375 96.058594 C 683.492188 98.300781 681.035156 101 678.535156 103.710938 C 677.421875 104.921875 676.699219 105.699219 677.175781 107.023438 C 675.546875 108.394531 674.074219 109.625 672.703125 110.78125 C 673.074219 111.632812 673.292969 112.136719 673.386719 112.363281 C 672.132812 112.976562 670.761719 113.207031 670.261719 113.988281 C 669.03125 115.929688 666.789062 117.164062 666.339844 119.628906 C 666.285156 119.921875 666.167969 120.378906 665.96875 120.445312 C 664.023438 121.082031 663.339844 122.683594 662.375 124.320312 C 660.570312 127.359375 657.984375 129.9375 656.210938 132.992188 C 654.65625 135.664062 653.46875 138.421875 651.175781 140.707031 C 649.363281 142.515625 648.375 145.167969 647.046875 147.460938 C 645.535156 150.089844 644.058594 152.742188 642.515625 155.46875 C 642.738281 155.964844 643.035156 156.589844 643.316406 157.21875 C 641.691406 158.066406 639.695312 158.316406 640.03125 160.804688 C 640.085938 161.234375 639.445312 161.9375 638.953125 162.214844 C 637.929688 162.792969 637.582031 163.597656 637.359375 164.699219 C 637.167969 165.648438 636.597656 166.542969 636.101562 167.410156 C 634.601562 170.0625 632.746094 172.566406 631.617188 175.363281 C 630.507812 178.113281 628.84375 180.539062 627.742188 183.289062 C 626.070312 187.460938 623.808594 191.390625 622.050781 195.535156 C 621.082031 197.8125 619.230469 199.875 619.8125 202.691406 C 619.875 202.984375 619.457031 203.4375 619.183594 203.730469 C 616.054688 207.105469 615.792969 211.828125 613.546875 215.617188 C 614.074219 217.621094 612.003906 218.910156 612.105469 220.796875 C 609.382812 223.835938 608.660156 227.703125 607.660156 231.460938 C 607.4375 232.300781 606.949219 233.074219 606.664062 233.90625 C 606.105469 235.550781 605.585938 237.210938 605.09375 238.875 C 604.957031 239.351562 605.125 240.183594 604.863281 240.324219 C 602.820312 241.4375 603.292969 243.492188 602.875 245.214844 C 602.6875 246.003906 602.488281 246.800781 602.195312 247.558594 C 600.226562 252.632812 597.253906 257.382812 597.058594 263.050781 C 597.050781 263.398438 596.675781 263.726562 596.519531 264.085938 C 595.46875 266.535156 594.28125 268.9375 593.4375 271.457031 C 592.398438 274.566406 591.699219 277.789062 590.75 280.933594 C 590.429688 282 589.171875 283.152344 589.414062 283.9375 C 589.976562 285.734375 588.984375 286.953125 588.300781 288.136719 C 586.144531 291.898438 585.5625 296.199219 584.484375 300.214844 C 583.398438 304.261719 581.019531 307.699219 580.144531 311.792969 C 579.746094 313.660156 579.242188 315.320312 579.984375 317.011719 C 579.128906 317.886719 578.011719 318.542969 577.648438 319.492188 C 576.457031 322.578125 575.53125 325.761719 574.535156 328.921875 C 574.390625 329.375 574.515625 329.925781 574.332031 330.355469 C 572.886719 333.820312 571.417969 337.277344 569.90625 340.71875 C 569.007812 342.761719 568.007812 344.75 567.0625 346.773438 C 566.757812 347.429688 566.375 348.085938 566.234375 348.78125 C 565.378906 352.964844 563.167969 356.585938 561.121094 360.195312 C 560.285156 361.652344 559.597656 362.773438 560.171875 364.257812 C 559.304688 364.914062 557.988281 365.425781 557.945312 366.023438 C 557.765625 368.660156 555.390625 369.859375 554.328125 371.910156 C 553.570312 373.363281 553.351562 374.394531 554.109375 375.808594 C 552.574219 376.40625 550.582031 376.367188 551.089844 378.71875 C 551.121094 378.859375 550.890625 379.074219 550.753906 379.226562 C 549.300781 380.78125 547.765625 382.277344 546.398438 383.90625 C 545.289062 385.230469 544.507812 386.84375 543.332031 388.085938 C 542.140625 389.339844 540.414062 390.160156 541.171875 392.371094 C 541.21875 392.519531 540.84375 392.894531 540.59375 393.058594 C 538.914062 394.164062 537.207031 395.246094 535.121094 396.585938 C 534.855469 397.367188 534.414062 398.691406 533.933594 400.121094 C 532.550781 400.570312 530.589844 400.78125 529.195312 401.78125 C 527.4375 403.042969 525.839844 404.464844 523.730469 404.957031 C 523.785156 407.558594 523.378906 408.558594 521.5 408.726562 C 519.359375 408.921875 517.515625 409.601562 515.699219 410.628906 C 515.105469 410.957031 514.253906 411.175781 513.613281 411.023438 C 511.035156 410.417969 509.699219 412.113281 508.230469 413.71875 C 507.089844 413.378906 505.929688 413.039062 504.765625 412.691406 C 504 414.628906 502.640625 412.613281 501.410156 413.160156 C 499.839844 413.851562 497.6875 413.691406 495.902344 413.332031 C 490.621094 412.246094 485.386719 410.921875 480.152344 409.617188 C 477.449219 408.9375 474.761719 408.15625 472.109375 407.304688 C 468.78125 406.234375 465.519531 404.96875 462.1875 403.925781 C 458.429688 402.746094 454.621094 401.757812 450.851562 400.617188 C 449.183594 400.117188 447.382812 399.703125 445.980469 398.757812 C 444.34375 397.652344 442.683594 397.152344 440.789062 396.902344 C 439.957031 396.789062 439.003906 396.3125 438.433594 395.703125 C 437.363281 394.546875 436.128906 394.113281 434.617188 393.867188 C 433.347656 393.660156 432.140625 393.011719 430.933594 392.492188 C 430.367188 392.253906 429.902344 391.796875 429.335938 391.570312 C 425.351562 389.984375 421.171875 388.953125 417.25 387.167969 C 415.921875 386.5625 414.464844 386.148438 413.023438 385.863281 C 411.6875 385.601562 410.359375 385.550781 409.644531 384.101562 C 409.488281 383.789062 409.011719 383.464844 408.671875 383.453125 C 406.304688 383.351562 404.476562 382.125 402.523438 380.960938 C 401.484375 380.339844 399.867188 380.753906 398.664062 380.304688 C 397.351562 379.8125 396.292969 378.671875 394.984375 378.160156 C 392.558594 377.203125 389.730469 377.246094 387.820312 375.011719 C 387.488281 374.625 386.65625 374.671875 386.0625 374.507812 C 384.128906 373.984375 381.757812 374.726562 380.382812 372.503906 C 380.222656 372.242188 379.636719 372.171875 379.238281 372.125 C 377.011719 371.847656 374.992188 370.367188 372.574219 371.078125 C 372.144531 371.203125 371.519531 370.621094 370.972656 370.394531 C 368.765625 369.484375 366.925781 367.699219 364.371094 367.609375 C 363.363281 367.574219 362.355469 367.589844 361.386719 367.585938 C 360.757812 367.070312 360.121094 366.199219 359.285156 365.910156 C 353.8125 364.011719 348.339844 362.109375 342.785156 360.46875 C 339.503906 359.5 336.101562 358.65625 332.707031 358.445312 C 329.972656 358.277344 327.421875 357.699219 324.8125 357.066406 C 319.898438 355.867188 314.96875 354.640625 309.972656 353.871094 C 303.015625 352.792969 295.984375 352.117188 288.988281 351.265625 C 281.671875 350.375 274.351562 349.472656 267.035156 348.609375 C 266.320312 348.527344 265.542969 348.523438 264.867188 348.722656 C 261.539062 349.699219 258.257812 348.171875 254.832031 348.785156 C 251.265625 349.425781 247.46875 348.660156 243.816406 348.996094 C 239.703125 349.378906 235.625 350.234375 231.5625 351.007812 C 226.785156 351.921875 221.988281 352.804688 217.277344 354.003906 C 213.191406 355.042969 209.1875 356.433594 205.203125 357.828125 C 204.324219 358.136719 203.675781 359.089844 202.855469 359.804688 C 201.914062 359.324219 200.914062 359.226562 199.796875 360.003906 C 198.332031 361.027344 196.890625 361.9375 196.429688 363.867188 C 195.984375 365.773438 194.480469 366.816406 192.941406 366.222656 C 190.660156 365.335938 189.023438 366.183594 187.449219 367.71875 C 186.800781 368.359375 185.96875 368.800781 185.226562 369.339844 C 184.585938 369.8125 183.890625 370.230469 183.34375 370.792969 C 182.449219 371.707031 181.644531 372.714844 180.691406 373.816406 C 181.171875 374.277344 181.738281 374.8125 182.636719 375.675781 L 180.003906 376.539062 C 179.351562 375.929688 178.929688 375.226562 178.527344 375.238281 C 177.871094 375.261719 177.089844 375.605469 176.605469 376.074219 C 174.222656 378.371094 171.898438 380.730469 169.625 383.128906 C 169.355469 383.417969 169.378906 384.074219 169.421875 384.554688 C 169.542969 386.210938 168.582031 387.402344 167.203125 387.421875 C 164.402344 387.457031 163.441406 389.847656 162.765625 391.40625 C 161.480469 394.359375 159.1875 396.484375 157.390625 398.898438 C 155.28125 401.738281 153.835938 405.015625 151.410156 407.628906 C 151.042969 408.03125 151.058594 408.792969 150.894531 409.382812 C 151.585938 409.582031 152.183594 409.75 153.257812 410.058594 C 149.132812 410.996094 148.164062 412.019531 148.09375 415.054688 C 146.964844 415.5 145.933594 415.832031 145.558594 417.394531 C 145.167969 419.03125 143.050781 420.144531 143.949219 422.285156 C 143.988281 422.375 143.761719 422.65625 143.601562 422.730469 C 141.34375 423.757812 140.984375 426.089844 140.050781 427.996094 C 139.335938 429.457031 139.003906 431.105469 138.3125 432.578125 C 137.152344 435.066406 135.671875 437.417969 134.640625 439.949219 C 132.757812 444.589844 131.113281 449.316406 129.347656 454 C 127.417969 459.125 126.105469 464.441406 124.53125 469.671875 C 123.40625 473.417969 122.644531 477.261719 121.382812 480.96875 C 120.476562 483.640625 120.21875 486.527344 119.609375 489.308594 C 118.957031 492.28125 118.0625 495.207031 117.550781 498.195312 C 116.496094 504.367188 115.597656 510.5625 114.695312 516.757812 C 114.691406 516.765625 114.695312 516.773438 114.691406 516.789062 C 110.988281 542.34375 118.855469 567.621094 116.742188 593.15625 C 116.707031 593.558594 116.898438 593.972656 116.96875 594.378906 C 117.457031 597.109375 117.953125 599.828125 118.414062 602.558594 C 118.703125 604.28125 119.421875 606.125 119.074219 607.722656 C 118.636719 609.738281 119.039062 611.660156 119.300781 613.464844 C 119.574219 615.324219 120.667969 617.066406 120.21875 619.113281 C 120.152344 619.398438 120.671875 619.78125 120.855469 620.15625 C 121.082031 620.617188 121.324219 621.101562 121.417969 621.605469 C 122.28125 626.179688 123.121094 630.761719 123.941406 635.34375 C 124.289062 637.28125 124.941406 639.269531 124.753906 641.164062 C 124.609375 642.632812 124.851562 643.835938 125.414062 645.03125 C 125.984375 646.246094 126.828125 647.320312 127.433594 648.519531 C 127.847656 649.332031 128.355469 650.285156 128.28125 651.125 C 128.023438 654.195312 129.800781 656.246094 131.53125 658.363281 C 132.183594 659.160156 133.039062 659.84375 133.46875 660.742188 C 135.160156 664.269531 136.71875 667.855469 138.332031 671.417969 C 139.941406 674.992188 141.347656 678.675781 143.226562 682.109375 C 145.347656 685.992188 147.867188 689.652344 150.261719 693.382812 C 151.941406 695.996094 153.765625 698.527344 155.425781 701.152344 C 156.621094 703.039062 157.835938 704.949219 158.738281 706.988281 C 159.589844 708.917969 160.582031 710.648438 162.195312 712.015625 C 162.566406 712.332031 163.261719 712.820312 163.191406 713.027344 C 162.480469 715.1875 164.386719 715.605469 165.425781 716.617188 C 165.890625 717.070312 166.628906 717.863281 166.496094 718.1875 C 165.894531 719.621094 166.917969 720.019531 167.722656 720.632812 C 168.359375 721.117188 169.519531 721.660156 169.496094 722.140625 C 169.410156 724.472656 171.269531 725.222656 172.53125 726.539062 C 174.222656 728.3125 176.03125 730.105469 177.195312 732.214844 C 179.484375 736.351562 182.550781 739.703125 186.148438 742.65625 C 186.617188 743.042969 187.46875 743.28125 187.589844 743.734375 C 188.152344 745.84375 189.953125 746.84375 191.332031 748.199219 C 191.960938 748.820312 193.363281 749.109375 193.476562 749.71875 C 193.878906 751.917969 195.800781 752.558594 197.171875 753.648438 C 198.523438 754.71875 199.335938 756.445312 201.007812 757.042969 C 202.789062 757.679688 204.097656 758.789062 205.332031 760.167969 C 206.144531 761.078125 207.214844 761.894531 208.332031 762.355469 C 211.132812 763.515625 213.308594 765.503906 215.597656 767.367188 C 216.609375 768.1875 217.667969 769.015625 218.835938 769.578125 C 221.882812 771.070312 225 772.433594 228.097656 773.8125 C 228.65625 774.0625 229.339844 774.378906 229.867188 774.246094 C 231.09375 773.941406 231.976562 774.332031 232.992188 774.960938 C 233.9375 775.542969 235.105469 775.894531 236.226562 776.042969 C 241.332031 776.730469 246.300781 777.894531 251.589844 777.851562 C 256.160156 777.808594 260.699219 777.5 265.167969 776.9375 C 271.984375 776.070312 278.496094 773.746094 284.882812 771.25 C 288.351562 769.894531 291.683594 768.175781 294.996094 766.46875 C 299.386719 764.207031 303.746094 761.867188 308.042969 759.414062 C 310.1875 758.191406 312.15625 756.667969 314.195312 755.265625 C 316.5 753.6875 318.871094 752.199219 321.085938 750.492188 C 326.234375 746.519531 331.308594 742.449219 336.402344 738.40625 C 338.1875 736.992188 340.566406 735.875 341.574219 734.023438 C 342.953125 731.488281 345.335938 730.652344 347.273438 729.070312 C 348.230469 728.289062 349.226562 727.539062 350.128906 726.6875 C 353.699219 723.285156 357.09375 719.671875 360.867188 716.507812 C 362.707031 714.964844 364.65625 713.789062 364.578125 710.660156 C 366.765625 711.472656 368.1875 710.617188 369.566406 709.355469 C 372.59375 706.578125 375.402344 703.585938 378.769531 701.152344 C 381.160156 699.421875 383.058594 697.011719 385.179688 694.894531 C 385.398438 694.679688 385.582031 694.324219 385.839844 694.269531 C 388.566406 693.644531 390.058594 691.375 392.023438 689.730469 C 393.136719 688.804688 394.625 688.21875 395.480469 687.125 C 397.214844 684.894531 399.523438 683.398438 401.707031 681.769531 C 404.363281 679.789062 407.265625 678.132812 410.019531 676.273438 C 413.921875 673.652344 417.5 670.539062 421.9375 668.75 C 424.34375 667.777344 426.589844 666.320312 429.054688 665.59375 C 432.910156 664.457031 436.847656 663.328125 440.828125 662.96875 C 445.398438 662.546875 450.070312 662.113281 454.644531 663.421875 C 456.03125 663.820312 457.496094 663.917969 458.910156 664.230469 C 462.175781 664.949219 465.789062 664.492188 468.554688 667.011719 C 468.820312 667.253906 469.347656 667.226562 469.753906 667.285156 C 473.621094 667.878906 476.726562 670.070312 479.988281 672 C 481.734375 673.035156 483.636719 673.839844 485.53125 674.597656 C 487.535156 675.394531 489.753906 675.734375 490.957031 677.898438 C 491.222656 678.378906 491.945312 678.617188 492.476562 678.9375 C 493.941406 679.828125 495.734375 680.421875 496.828125 681.644531 C 499.921875 685.097656 504.648438 685.9375 507.960938 689.023438 C 509.933594 690.859375 512.851562 691.640625 514.070312 694.378906 C 514.171875 694.613281 514.535156 694.898438 514.765625 694.882812 C 516.800781 694.773438 517.324219 697.777344 519.597656 697.214844 C 519.765625 697.171875 520.085938 697.765625 520.339844 698.0625 C 521.945312 699.921875 524.117188 701.441406 526.175781 702.160156 C 528.269531 702.886719 529.847656 704.210938 531.804688 704.90625 C 531.585938 705.625 531.421875 706.144531 531.246094 706.722656 C 534.8125 706.953125 535.914062 710.835938 539.035156 711.480469 C 539.070312 711.488281 539.058594 711.675781 539.101562 711.773438 C 539.894531 713.640625 541.71875 714.265625 543.285156 715.136719 C 544.503906 715.816406 546.347656 715.890625 547.054688 716.859375 C 548.652344 719.035156 550.527344 720.675781 552.867188 721.929688 C 555.621094 723.40625 558.375 724.90625 561.019531 726.566406 C 561.914062 727.121094 562.730469 727.480469 563.761719 727.730469 C 565.226562 728.101562 566.734375 728.789062 567.917969 729.734375 C 569.9375 731.355469 571.917969 733.109375 573.53125 735.121094 C 574.890625 736.820312 577.175781 736.820312 578.476562 738.445312 C 579.105469 739.234375 579.804688 740.152344 580.683594 740.539062 C 583.765625 741.894531 587.3125 742.25 589.800781 744.867188 C 589.917969 744.992188 590.199219 744.96875 590.40625 744.996094 C 592.320312 745.246094 593.488281 747.515625 595.726562 746.957031 C 595.917969 746.910156 596.394531 747.269531 596.421875 747.484375 C 596.644531 749.027344 597.710938 749.488281 599.035156 749.675781 C 600.339844 749.867188 600.4375 751.632812 602.144531 751.675781 C 604.949219 751.753906 607.5625 753.382812 609.546875 754.996094 C 611.203125 756.347656 612.703125 756.382812 614.410156 756.710938 C 615.078125 756.84375 615.855469 756.9375 616.355469 757.335938 C 618.085938 758.71875 619.957031 759.757812 622.09375 760.328125 C 622.777344 760.511719 623.65625 760.558594 624.078125 761.007812 C 625.296875 762.304688 626.785156 762.386719 628.375 762.4375 C 629.496094 762.472656 631.09375 762.273438 631.644531 762.910156 C 632.816406 764.242188 634.3125 764.1875 635.683594 764.707031 C 636.914062 765.167969 638.714844 764.675781 639.117188 766.683594 C 639.15625 766.863281 640.0625 767.027344 640.5 766.925781 C 641.175781 766.773438 641.796875 766.382812 642.4375 766.097656 C 643.652344 767.726562 645.140625 768.664062 646.980469 768.96875 C 647.699219 769.089844 648.632812 768.933594 649.101562 769.328125 C 651.953125 771.722656 655.109375 771.363281 658.363281 770.640625 C 658.695312 770.566406 659.089844 770.621094 659.417969 770.734375 C 660.320312 771.066406 661.171875 771.632812 662.101562 771.804688 C 665.664062 772.460938 669.316406 772.738281 672.808594 773.660156 C 675.546875 774.375 678.042969 774.621094 680.652344 773.433594 C 681.101562 773.230469 682.136719 773.382812 682.320312 773.703125 C 683.132812 775.144531 684.414062 774.839844 685.625 774.816406 C 687.480469 774.785156 689.367188 774.460938 691.1875 774.679688 C 696.8125 775.351562 702.414062 774.613281 707.804688 773.507812 C 712.332031 772.578125 716.960938 772.128906 721.472656 770.691406 C 725.804688 769.3125 730.214844 768.164062 734.46875 766.480469 C 743.371094 762.96875 751.917969 758.839844 759.6875 753.164062 C 764.277344 749.816406 768.65625 746.277344 772.167969 741.761719 C 772.347656 741.527344 772.75 741.371094 773.066406 741.34375 C 775.039062 741.144531 776.085938 739.839844 777.109375 738.320312 C 778.191406 736.714844 779.472656 735.242188 780.773438 733.804688 C 782.308594 732.109375 784.011719 730.5625 785.546875 728.859375 C 785.914062 728.449219 786.015625 727.691406 786.03125 727.089844 C 786.0625 725.492188 786.953125 724.691406 788.316406 724.082031 C 792.425781 722.234375 793.046875 718.023438 795.15625 714.410156 C 795.925781 713.597656 797.269531 712.660156 797.9375 711.367188 C 799.207031 708.898438 800.058594 706.21875 801.140625 703.652344 C 801.582031 702.609375 801.976562 700.984375 802.75 700.746094 C 804.945312 700.054688 805.164062 698.128906 806.066406 696.613281 C 806.382812 696.085938 806.691406 695.558594 806.964844 695.015625 C 808.296875 692.445312 809.605469 689.855469 811.222656 687.445312 C 811.507812 687.03125 811.832031 686.429688 811.734375 686.015625 C 811.46875 684.859375 812.167969 684.144531 812.535156 683.214844 C 813.058594 681.863281 814.371094 681.214844 814.890625 680.164062 C 816.425781 677.054688 818.496094 674.125 818.851562 670.511719 C 818.921875 669.800781 819.023438 669.046875 819.328125 668.410156 C 820.164062 666.667969 821.195312 665.019531 822 663.261719 C 822.417969 662.34375 822.195312 660.84375 822.832031 660.355469 C 824.914062 658.753906 824.625 656.816406 823.953125 654.621094 C 825.921875 653.949219 827.1875 652.898438 826.796875 650.710938 C 826.734375 650.382812 827.03125 649.941406 827.246094 649.613281 C 828.113281 648.257812 828.15625 646.398438 829.753906 645.496094 C 829.796875 642.429688 832.621094 640.386719 832.765625 637.328125 C 832.800781 636.613281 833.097656 636.15625 832.386719 635.460938 C 831.429688 634.523438 831.859375 633.363281 832.902344 632.589844 C 833.628906 632.046875 834.453125 631.628906 835.164062 631.195312 C 835.539062 629.515625 835.039062 627.675781 837.070312 626.769531 C 837.535156 626.5625 837.527344 625.300781 837.75 624.53125 C 838.074219 623.367188 838.09375 621.917969 838.824219 621.105469 C 839.699219 620.117188 840.300781 619.25 840.46875 617.917969 C 840.617188 616.722656 840.972656 615.480469 841.539062 614.421875 C 843.230469 611.25 844.667969 608.011719 845.082031 604.390625 C 845.164062 603.679688 845.242188 602.828125 845.652344 602.304688 C 847.488281 599.960938 847.402344 597.375 846.671875 594.730469 C 849.097656 594.191406 850.300781 593.21875 850.617188 591.292969 C 850.796875 590.1875 850.316406 588.925781 850.664062 587.914062 C 851.015625 586.878906 852.222656 586.15625 852.671875 585.121094 C 853.859375 582.40625 854.878906 579.609375 855.882812 576.808594 C 856.117188 576.164062 856.03125 575.390625 856.015625 574.675781 C 855.996094 573.753906 855.90625 572.832031 855.839844 571.789062 C 857.417969 571.476562 858.523438 570.835938 858.398438 569.105469 C 858.375 568.832031 858.519531 568.453125 858.722656 568.273438 C 860.859375 566.269531 861.214844 563.484375 862.035156 560.894531 C 862.535156 559.324219 862.75 557.511719 863.699219 556.28125 C 864.554688 555.175781 864.539062 554.25 864.375 553.148438 C 864.242188 552.238281 863.972656 551.351562 863.746094 550.371094 C 864.523438 549.890625 865.238281 549.5 865.902344 549.035156 C 866.578125 548.566406 867.207031 548.023438 867.902344 547.472656 C 867.953125 546.570312 867.996094 545.660156 868.027344 545.066406 C 868.832031 544.3125 869.808594 543.835938 869.917969 543.210938 C 870.144531 541.949219 869.894531 540.609375 869.84375 539.441406 C 870.394531 538.59375 870.96875 537.773438 871.472656 536.917969 C 871.949219 536.109375 872.171875 535.074219 872.820312 534.472656 C 874.121094 533.269531 875 532.015625 874.796875 530.167969 C 874.765625 529.902344 874.945312 529.589844 875.085938 529.332031 C 876.5625 526.707031 878.496094 524.316406 878.941406 521.199219 C 878.996094 520.820312 879.242188 520.382812 879.535156 520.140625 C 881.273438 518.75 881.5625 516.882812 881.179688 514.582031 C 884.429688 514.132812 883.839844 510.847656 885.410156 509.042969 C 887.011719 507.207031 888.667969 505.21875 887.683594 502.746094 C 888.710938 501.644531 889.660156 500.851562 890.324219 499.867188 C 892.242188 496.992188 893.746094 493.785156 895.976562 491.195312 C 898.242188 488.570312 897.425781 484.171875 901.25 482.578125 C 901.511719 482.472656 901.546875 481.828125 901.695312 481.4375 C 902.777344 478.558594 903.925781 475.722656 906.375 473.667969 C 907.558594 472.675781 908.796875 471.71875 908.6875 469.890625 C 908.667969 469.585938 909.144531 469.253906 909.394531 468.929688 C 910.082031 468.054688 910.765625 467.171875 911.449219 466.296875 C 912.960938 464.367188 914.246094 462.167969 916.058594 460.574219 C 917.777344 459.058594 919.152344 457.578125 919.1875 455.84375 C 920.960938 454.21875 922.421875 453.066406 923.644531 451.707031 C 925.121094 450.058594 926.347656 448.277344 928.152344 446.828125 C 932.074219 443.675781 934.425781 438.84375 939.03125 436.363281 C 939.199219 436.273438 939.269531 436.015625 939.429688 435.882812 C 942.375 433.433594 945.15625 430.746094 948.320312 428.625 C 951.480469 426.507812 954.523438 424.210938 957.875 422.304688 C 960.644531 420.726562 963.332031 419.023438 966.277344 417.769531 C 969.046875 416.59375 971.828125 415.445312 974.597656 414.269531 C 980.203125 411.882812 985.859375 409.660156 992.046875 409.300781 C 992.355469 409.285156 992.664062 409.203125 992.96875 409.125 C 998.320312 407.695312 1003.832031 407.597656 1009.296875 407.308594 C 1013.539062 407.085938 1017.800781 407.324219 1022.054688 407.40625 C 1023.195312 407.429688 1024.34375 407.5625 1025.464844 407.765625 C 1027.394531 408.105469 1029.320312 408.847656 1031.207031 407.585938 C 1031.4375 407.433594 1031.960938 407.359375 1032.101562 407.492188 C 1033.6875 409.089844 1035.789062 408.507812 1037.660156 408.875 C 1041.890625 409.707031 1046.097656 410.652344 1050.332031 411.429688 C 1052.980469 411.914062 1055.691406 412.058594 1058.339844 412.578125 C 1060.433594 412.992188 1062.449219 413.8125 1064.53125 414.3125 C 1067.214844 414.960938 1070.058594 414.929688 1072.558594 416.402344 C 1073.316406 416.855469 1074.363281 416.886719 1075.292969 416.960938 C 1077.449219 417.132812 1079.617188 416.984375 1081.472656 418.585938 C 1082.058594 419.089844 1083.28125 418.824219 1084.210938 418.945312 C 1086.371094 419.226562 1088.671875 419.152344 1090.648438 419.910156 C 1093.074219 420.847656 1095.378906 421.484375 1098.035156 421.746094 C 1103.265625 422.257812 1108.382812 423.835938 1113.601562 424.582031 C 1117.574219 425.152344 1121.632812 425.132812 1125.652344 425.367188 C 1126.164062 425.398438 1126.675781 425.367188 1127.1875 425.367188 C 1131.417969 425.324219 1135.679688 425.605469 1139.871094 425.179688 C 1148.152344 424.34375 1156.082031 421.796875 1163.988281 419.308594 C 1165.960938 418.691406 1167.796875 417.65625 1169.71875 416.882812 C 1174.546875 414.945312 1179.257812 412.832031 1183.226562 409.359375 C 1183.519531 409.097656 1183.859375 408.84375 1184.226562 408.722656 C 1188.992188 407.1875 1192.480469 403.609375 1196.402344 400.816406 C 1200.386719 397.980469 1203.832031 394.382812 1207.445312 391.042969 C 1208.476562 390.089844 1209.082031 388.554688 1210.226562 387.867188 C 1212.019531 386.796875 1213.46875 385.566406 1214.84375 383.960938 C 1216.699219 381.796875 1218.671875 379.8125 1219.210938 377.453125 C 1220.980469 376.351562 1222.574219 375.699219 1223.691406 374.585938 C 1225.285156 373 1226.371094 370.917969 1227.964844 369.324219 C 1231.082031 366.210938 1233.757812 362.917969 1234.007812 358.199219 C 1236.535156 358.105469 1237.777344 356.40625 1238.902344 354.667969 C 1240.007812 352.953125 1240.90625 351.109375 1241.972656 349.375 C 1243.625 346.671875 1246.4375 344.570312 1246.320312 340.9375 C 1246.304688 340.597656 1246.722656 340.226562 1246.984375 339.910156 C 1248.03125 338.660156 1249.101562 337.425781 1250.371094 335.941406 C 1250.289062 335.398438 1250.15625 334.515625 1250.097656 334.105469 C 1251.503906 332.761719 1252.9375 331.902344 1253.613281 330.636719 C 1255.707031 326.714844 1257.324219 322.566406 1259.679688 318.734375 C 1261.210938 316.242188 1261.855469 313.210938 1262.96875 310.445312 C 1263.828125 308.3125 1264.511719 306.03125 1265.777344 304.148438 C 1268.054688 300.738281 1269.339844 297.238281 1268.296875 292.800781 C 1271.121094 292.269531 1270.878906 289.289062 1272.519531 287.542969 C 1274.023438 285.9375 1274.148438 283.035156 1274.886719 280.695312 C 1274.511719 280.179688 1274.125 279.648438 1273.691406 279.0625 C 1275.566406 277.390625 1277.570312 275.988281 1276.621094 273.210938 C 1277.824219 271.753906 1276.5 269.59375 1278.191406 268.121094 C 1279.042969 267.375 1279.738281 265.824219 1279.613281 264.738281 C 1279.460938 263.359375 1279.929688 262.40625 1280.390625 261.277344 C 1280.964844 259.871094 1281.375 258.398438 1281.808594 256.9375 C 1281.972656 256.375 1281.980469 255.769531 1282.113281 255.183594 C 1282.460938 253.589844 1282.890625 252.011719 1283.195312 250.402344 C 1283.5 248.816406 1283.277344 247.171875 1284.46875 245.71875 C 1284.988281 245.082031 1284.761719 243.742188 1284.6875 242.730469 C 1284.550781 240.65625 1284.492188 238.679688 1285.507812 236.699219 C 1286.128906 235.480469 1286.347656 233.96875 1286.417969 232.566406 C 1286.5625 229.574219 1287.003906 226.582031 1287.4375 223.660156 C 1287.828125 221.042969 1288.414062 218.574219 1287.957031 215.894531 C 1287.808594 215.023438 1288.515625 214.019531 1288.796875 213.0625 C 1288.992188 212.414062 1289.222656 211.761719 1289.273438 211.09375 C 1289.546875 207.339844 1289.738281 203.578125 1290.023438 199.828125 C 1290.105469 198.695312 1290.347656 197.574219 1290.546875 196.453125 C 1290.660156 195.847656 1290.957031 195.246094 1290.945312 194.648438 C 1290.890625 191.988281 1290.632812 189.335938 1290.679688 186.6875 C 1290.765625 181.527344 1291.03125 176.375 1291.167969 171.21875 C 1291.207031 169.785156 1290.984375 168.347656 1290.976562 166.917969 C 1290.9375 162.800781 1290.988281 158.6875 1290.917969 154.570312 C 1290.863281 151.6875 1290.65625 148.804688 1290.515625 145.921875 C 1290.328125 141.980469 1290.210938 138.046875 1289.933594 134.117188 C 1289.75 131.546875 1289.265625 128.996094 1289.054688 126.425781 C 1288.765625 122.917969 1288.988281 119.324219 1288.324219 115.898438 C 1286.398438 105.90625 1284.367188 95.921875 1281.28125 86.203125 C 1280.839844 84.8125 1280.496094 83.394531 1280.054688 82 C 1278.664062 77.796875 1277.691406 73.417969 1275.351562 69.523438 Z M 681.839844 185.550781 C 681.609375 185.082031 681.382812 184.621094 681.15625 184.15625 L 681.734375 183.765625 C 681.980469 184.207031 682.25 184.632812 682.441406 185.09375 C 682.464844 185.15625 682.046875 185.394531 681.839844 185.550781 Z M 681.839844 185.550781 " fill-opacity="1" fill-rule="nonzero"/></g></g></g><g clip-path="url(#f14b89ba93)"><g clip-path="url(#2039446fcb)"><g clip-path="url(#b771ec2410)"><path fill="#ff7bac" d="M 724.640625 63.160156 C 725.792969 63.058594 726.382812 63 727.550781 62.894531 C 726.566406 64.09375 726.066406 64.730469 724.640625 63.160156 Z M 724.640625 63.160156 " fill-opacity="1" fill-rule="nonzero"/></g></g></g></svg>